<svg width="45" height="45" viewBox="0 0 45 45" fill="none" xmlns="http://www.w3.org/2000/svg">
<path d="M22.1429 0C9.91366 0 0 9.91366 0 22.1429C0 34.3721 9.91366 44.2857 22.1429 44.2857C34.3721 44.2857 44.2857 34.3721 44.2857 22.1429C44.2857 9.91366 34.3721 0 22.1429 0ZM30.5904 11.2764L27.5278 11.2778C25.1262 11.2778 24.6618 12.419 24.6618 14.0935V17.7859H30.3888L30.3861 23.5691H24.6623V38.4101H18.6888V23.5691H13.6953V17.7859H18.6888V13.5208C18.6888 8.57127 21.7129 5.87562 26.1279 5.87562L30.5909 5.88241V11.2764H30.5904Z" fill="white"/>
</svg>
